<svg version="1.1" id="icon-play" {% if size %}width="{{size}}" height="{{size}}"{% endif %} xmlns="http://www.w3.org/2000/svg" xmlns:xlink="http://www.w3.org/1999/xlink" x="0px" y="0px" viewBox="0 0 512 512" style="enable-background:new 0 0 512 512;" xml:space="preserve">{%- if title -%}<title>{{title}}</title>{%- endif -%}<g><g><g><path d="M256,0C114.8,0,0,114.8,0,256s114.8,256,256,256s256-114.8,256-256S397.2,0,256,0z M256,490.7 C126.6,490.7,21.3,385.4,21.3,256S126.6,21.3,256,21.3S490.7,126.6,490.7,256S385.4,490.7,256,490.7z"/><path d="M357.8,247l-149.3-96c-3.3-2.1-7.5-2.2-10.9-0.4c-3.4,1.9-5.6,5.5-5.6,9.4v192c0,3.9,2.1,7.5,5.6,9.4 c1.6,0.9,3.4,1.3,5.1,1.3c2,0,4-0.6,5.8-1.7l149.3-96c3-2,4.9-5.3,4.9-9C362.7,252.4,360.8,249,357.8,247z M213.3,332.5V179.5 L332.3,256L213.3,332.5z"/></g></g></g></svg>